<?xml version="1.0" encoding="UTF-8" standalone="no"?>
<svg
   xmlns:dc="http://purl.org/dc/elements/1.1/"
   xmlns:cc="http://creativecommons.org/ns#"
   xmlns:rdf="http://www.w3.org/1999/02/22-rdf-syntax-ns#"
   xmlns:svg="http://www.w3.org/2000/svg"
   xmlns="http://www.w3.org/2000/svg"
   width="150"
   height="150"
   viewBox="0 0 39.6875 39.6875"
   version="1.1"
   id="svg8">
  <defs
     id="defs2" />
  <metadata
     id="metadata5">
    <rdf:RDF>
      <cc:Work
         rdf:about="">
        <dc:format>image/svg+xml</dc:format>
        <dc:type
           rdf:resource="http://purl.org/dc/dcmitype/StillImage" />
        <dc:title></dc:title>
      </cc:Work>
    </rdf:RDF>
  </metadata>
  <g
     id="layer1"
     transform="matrix(0.20333845,0,0,0.20333845,-9.022817,-11.017656)">
    <path
       style="fill:#98d000;fill-opacity:1;stroke-width:0.26458332"
       d="m 134.63078,249.25974 c -6.07223,-0.55386 -14.45901,-1.93844 -17.43372,-2.87815 -2.98374,-0.94256 -3.20367,-1.27597 -3.20419,-4.85759 -5.3e-4,-3.7741 -0.22898,-4.19677 -3.41443,-6.31797 -3.6204,-2.41083 -5.85803,-4.27066 -9.28545,-7.7177 -4.895728,-4.92374 -7.825817,-9.20002 -9.137366,-13.33539 -1.088216,-3.43118 -2.882294,-14.18358 -4.4882,-26.89899 -1.265772,-10.02226 -2.768896,-19.95496 -3.433157,-22.68643 -0.765841,-3.14916 -2.046954,-6.58712 -3.459231,-9.28307 -0.862144,-1.64578 -0.955646,-1.98999 -0.695605,-2.56072 0.165233,-0.36265 0.451804,-0.66134 0.636825,-0.66375 0.427287,-0.006 5.417112,5.18215 7.000996,7.27867 2.746478,3.63539 3.548418,6.23799 4.163915,13.51347 0.889072,10.50925 1.640641,16.32523 3.578822,27.69451 0.588936,3.45468 1.070793,6.57055 1.070793,6.92416 0,0.94519 1.661353,6.55454 2.79369,9.43254 1.202778,3.05703 2.414448,4.96878 5.861178,9.2476 6.84636,8.4992 11.0768,10.91522 22.03701,12.58542 3.76006,0.57299 17.51967,0.80603 23.64582,0.40047 7.65668,-0.50688 10.70109,-1.14921 14.31201,-3.01962 7.61745,-3.94575 14.75567,-11.92262 18.27319,-20.42006 2.0214,-4.88319 4.4993,-17.73473 6.98903,-36.2484 1.10336,-8.20461 1.5127,-10.63326 2.12788,-12.62498 0.50005,-1.61898 2.52949,-5.21639 5.1277,-9.0894 0.67443,-1.00534 1.22623,-1.98093 1.22623,-2.16799 0,-0.18705 0.28822,-0.44968 0.64048,-0.58361 0.47465,-0.18046 0.60368,-0.38429 0.49831,-0.7872 -0.1074,-0.41072 -0.0165,-0.54369 0.37173,-0.54369 0.28265,0 0.79354,-0.29766 1.13531,-0.66146 0.66801,-0.71106 1.30403,-0.86648 1.35339,-0.33073 0.0682,0.74011 -0.11562,1.42415 -0.99332,3.6968 -2.34843,6.08085 -4.60825,17.52665 -8.41216,42.60686 -1.57889,10.41005 -1.82285,11.64937 -3.05797,15.53505 -0.98813,3.10861 -1.58558,4.54137 -2.26476,5.43113 -0.5074,0.66473 -1.4246,2.1274 -2.03822,3.25037 -1.75609,3.21379 -6.90197,8.10643 -12.10362,11.508 -3.68894,2.41235 -4.54746,3.58982 -5.16075,7.07805 -0.20228,1.15051 -0.49468,2.32895 -0.64978,2.61876 -1.02124,1.90821 -5.38547,3.36025 -13.23947,4.40497 -3.17569,0.42242 -17.31781,0.74873 -20.37291,0.47007 z m -11.42259,-49.83495 -4.14305,-12.43542 h 1.81187 c 1.49571,0 1.83636,0.0808 1.95227,0.46302 1.29586,4.27348 6.55998,20.84199 6.65071,20.93271 0.068,0.068 0.16345,0.0741 0.21203,0.0135 0.0691,-0.0863 4.12077,-11.84678 6.94275,-20.15243 l 0.427,-1.25677 h 1.56263 c 0.85944,0 1.56262,0.0782 1.56262,0.17377 0,0.0956 -2.04116,5.69151 -4.5359,12.43541 l -4.53592,12.26165 h -1.88198 -1.88198 z m 20.41842,0 v -12.43542 h 1.5875 1.5875 v 12.43542 12.43541 h -1.5875 -1.5875 z m 8.99583,0.15133 v -12.28409 l 1.45218,-0.18144 c 1.97785,-0.24711 8.50828,0.0113 9.70723,0.38421 1.71652,0.53381 3.42209,1.90362 4.27742,3.43537 0.68426,1.22539 0.79934,1.7119 0.81357,3.43959 0.0139,1.68818 -0.10282,2.25628 -0.7247,3.52686 -1.56669,3.20094 -4.29698,4.49684 -9.30799,4.41794 l -2.91042,-0.0458 -0.0721,4.79574 -0.0721,4.79573 h -1.58153 -1.58153 z m 9.0225,0.34129 c 2.39028,-0.80029 3.73042,-2.7943 3.73042,-5.55053 0,-2.06757 -0.66336,-3.31531 -2.30433,-4.33433 -1.18766,-0.73752 -1.48818,-0.79997 -4.27552,-0.88845 l -2.99807,-0.0952 v 5.40841 c 0,2.97463 0.0794,5.48779 0.17639,5.58481 0.29429,0.29429 4.70965,0.19717 5.67111,-0.12474 z m -28.73395,-32.79568 c -7.31123,-0.36029 -15.67765,-1.37543 -23.01875,-2.79298 -4.41569,-0.85266 -6.66225,-1.47189 -10.583333,-2.91713 -4.935789,-1.81925 -5.926413,-2.23549 -6.911719,-2.90413 -0.504344,-0.34226 -1.06057,-0.62229 -1.236057,-0.62229 -1.124591,0 -9.168874,-7.12347 -10.927033,-9.67624 -0.980175,-1.42317 -1.033524,-1.60481 -1.033524,-3.51897 0,-1.71405 0.124152,-2.2776 0.823514,-3.73812 2.446728,-5.10965 7.500479,-8.51981 17.659999,-11.91661 4.854713,-1.62315 7.672683,-2.27292 14.275533,-3.29167 4.72785,-0.72945 6.82099,-0.93052 9.65729,-0.92769 3.6494,0.004 4.81179,0.13559 4.81179,0.54621 0,0.294 -1.59366,0.69692 -3.57188,0.90308 -8.45896,0.88153 -17.29981,3.0998 -23.28333,5.84206 -6.154507,2.82062 -12.18249,7.3514 -13.684447,10.28555 -0.745945,1.45725 -0.556915,3.97535 0.44689,5.95313 0.801371,1.57893 3.289227,4.34782 4.442551,4.9444 0.864835,0.44735 1.202571,0.30735 2.989484,-1.23921 3.128698,-2.70787 11.645682,-5.63518 21.812812,-7.49713 5.06955,-0.92841 7.64284,-1.1766 15.76249,-1.52026 7.95171,-0.33656 19.11662,-0.0365 26.20853,0.70426 4.71973,0.49301 13.92016,2.43449 19.80918,4.18014 2.21654,0.65704 6.03179,2.5811 10.18646,5.1371 l 3.04271,1.87192 1.28348,-0.69423 c 1.65694,-0.89623 4.59183,-4.0441 5.56644,-5.97038 0.67053,-1.32528 0.74568,-1.70742 0.62687,-3.18754 -0.1764,-2.19759 -1.12314,-3.94618 -3.49293,-6.45126 -4.07773,-4.31051 -9.39569,-6.61639 -22.69805,-9.84191 -7.13134,-1.72919 -11.51608,-2.37806 -18.59206,-2.75132 -6.11488,-0.32256 -7.96528,-0.63482 -7.35835,-1.24175 1.42473,-1.42474 16.77385,-0.91801 24.55626,0.81068 1.89177,0.42022 5.34459,1.12734 7.67292,1.57138 5.14918,0.98201 6.09721,1.30738 11.42013,3.91952 2.30466,1.13098 5.18077,2.50978 6.39136,3.06401 1.88811,0.86442 2.58728,1.3911 4.91728,3.70417 3.0267,3.00471 3.6494,4.0595 3.81119,6.45572 0.0959,1.42069 -8e-4,1.881 -0.71505,3.40759 -1.05342,2.25111 -3.96164,5.19618 -7.43637,7.53059 -3.2778,2.20211 -10.90213,6.0534 -13.75833,6.94977 -9.23789,2.89912 -18.84179,4.29453 -33.99896,4.93989 -6.78216,0.28877 -9.67752,0.28506 -15.87499,-0.0203 z m 3.1318,-26.85928 c -2.31049,-1.13954 -5.39604,-7.67704 -6.30171,-13.35175 -0.24226,-1.51793 -0.55807,-3.05753 -0.7018,-3.42133 -0.1618,-0.40953 -1.26812,-1.31166 -2.90477,-2.36862 -7.93643,-5.12542 -11.13661,-10.62498 -10.32678,-17.74673 0.94894,-8.345177 4.43447,-14.103877 13.00222,-21.481947 1.52797,-1.3158 3.92153,-3.38699 5.31902,-4.60264 1.39749,-1.21566 3.71921,-3.107 5.15937,-4.20299 3.58095,-2.72517 8.55982,-7.723317 10.3225,-10.362463 1.45384,-2.176737 2.52167,-4.465393 2.88074,-6.17419 0.7966,-3.790973 2.62341,-2.940837 4.13487,1.924229 1.06282,3.420989 1.65349,4.831269 5.06732,12.098684 3.51232,7.47705 9.03533,21.43443 9.46677,23.92374 1.08537,6.262437 -2.36366,14.103927 -8.88877,20.208867 -2.69921,2.52541 -4.42842,3.47005 -9.78162,5.34357 -7.25063,2.53758 -11.56815,4.88358 -14.63749,7.95355 -1.48731,1.48761 -1.98797,2.47419 -1.78768,3.52273 0.27592,1.44446 1.35691,3.41626 2.89541,5.28142 0.82017,0.9943 1.49122,2.03785 1.49122,2.31899 0,0.68617 -1.48879,1.56099 -2.64584,1.5547 -0.50931,-0.003 -1.30266,-0.19078 -1.76298,-0.41782 z m -6.24546,-21.31653 c 0.44016,-0.90203 1.12928,-4.25116 1.12928,-5.48832 0,-0.70213 -0.24766,-1.34323 -0.82884,-2.14552 -1.24183,-1.7143 -7.65682,-8.19563 -8.11173,-8.19563 -0.32933,0 -0.36748,0.30509 -0.22706,1.81596 0.29484,3.17228 1.22277,7.25878 2.02088,8.89967 0.8575,1.76302 4.77363,6.08106 5.34583,5.89448 0.19015,-0.062 0.49238,-0.41329 0.67164,-0.78064 z m 4.38362,-12.45603 c 0.92846,-1.78263 2.1261,-4.03403 2.66143,-5.00311 l 0.97333,-1.761957 -1.23559,-1.80991 c -0.67957,-0.99545 -1.70011,-2.33982 -2.26786,-2.98748 -0.56775,-0.64766 -1.82154,-2.3443 -2.78619,-3.77031 -0.96466,-1.42601 -1.84032,-2.59275 -1.94592,-2.59275 -0.58223,0 -5.11965,5.92113 -6.25315,8.16007 -0.79955,1.57931 -0.76001,2.35929 0.19254,3.797367 0.86315,1.30312 8.37009,9.20922 8.74427,9.20922 0.12597,0 0.98868,-1.45851 1.91714,-3.24114 z m 6.75403,-10.197337 c 1.21921,-1.27305 2.43736,-2.75472 2.74129,-3.33431 0.16077,-0.30657 0.75151,-1.11015 1.31275,-1.78571 1.3013,-1.56638 1.80843,-2.75844 1.55275,-3.64993 -0.10837,-0.37786 -0.63493,-1.37157 -1.17015,-2.20824 -1.01936,-1.59352 -3.06304,-5.65046 -3.54979,-7.04676 -0.1564,-0.44865 -0.38921,-0.81573 -0.51735,-0.81573 -1.10537,0 -7.13865,6.00171 -8.27765,8.23433 -0.80239,1.57282 -0.67879,3.08061 0.37394,4.56129 1.23395,1.73558 4.92946,5.82781 5.72792,6.34282 0.888,0.57276 0.98844,0.55621 1.80629,-0.29776 z m 8.61116,-11.56464 c 0.15824,-0.29104 0.6182,-1.07648 1.02213,-1.74542 0.40393,-0.66894 1.14107,-2.15144 1.6381,-3.29446 0.86348,-1.98576 0.88551,-2.11409 0.49513,-2.88479 -0.57315,-1.13151 -4.03047,-5.96595 -4.26652,-5.96595 -0.25516,0 -3.01959,2.85509 -3.5795,3.69689 -0.57725,0.86786 -0.54879,2.12129 0.10147,4.46781 0.64642,2.33268 1.55409,4.18595 2.67593,5.46365 0.89734,1.02201 1.45837,1.09892 1.91326,0.26227 z m 5.67249,-13.11724 c 0.56051,-1.77021 0.61087,-2.32953 0.51031,-5.668175 -0.0614,-2.037291 -0.20285,-3.912526 -0.31442,-4.167187 -0.34127,-0.778938 -0.80606,-0.522368 -1.43792,0.79375 -0.33185,0.691224 -1.12948,2.160204 -1.77251,3.2644 -0.65556,1.125692 -1.16908,2.346102 -1.169,2.778122 2.3e-4,1.20976 2.63727,5.27122 3.2828,5.05604 0.15337,-0.0511 0.55871,-0.97675 0.90074,-2.05695 z"
       id="path4250" />
  </g>
</svg>
