<?xml version="1.0" encoding="UTF-8" standalone="no"?>
<svg xmlns:dc="http://purl.org/dc/elements/1.1/" xmlns:cc="http://creativecommons.org/ns#" xmlns:rdf="http://www.w3.org/1999/02/22-rdf-syntax-ns#" xmlns:svg="http://www.w3.org/2000/svg" xmlns="http://www.w3.org/2000/svg" id="svg8" version="1.1" viewBox="0 0 191.14966 191.71992" height="191.71992mm" width="191.14966mm">
	<defs id="defs2"/>
	<metadata id="metadata5">
		<rdf:RDF>
			<cc:Work rdf:about="">
				<dc:format>image/svg+xml</dc:format>
				<dc:type rdf:resource="http://purl.org/dc/dcmitype/StillImage"/>
				<dc:title/>
			</cc:Work>
		</rdf:RDF>
	</metadata>
	<g transform="translate(-27.379603,-44.315852)" id="layer1">
		<path id="path4256" d="m 114.55717,235.88545 c -12.47169,-1.23845 -22.930458,-4.15846 -33.469788,-9.34453 -5.3103,-2.61302 -9.28648,-4.94453 -13.21685,-7.74993 -20.96747,-14.96606 -35.10078,-37.3597 -39.27918,-62.23619 -1.0291,-6.12685 -1.21443,-8.61557 -1.21172,-16.27188 0.003,-9.30008 0.62412,-14.85074 2.54502,-22.75417 7.35939,-30.279768 28.92602,-55.097005 57.77731,-66.485735 22.237428,-8.777982 47.114888,-8.972714 69.188548,-0.541585 33.89868,12.947751 57.49891,43.754245 61.23134,79.92818 0.4792,4.64431 0.54869,13.79934 0.13905,18.31998 -1.93931,21.40149 -10.70899,41.19285 -25.1591,56.77893 -15.83184,17.07642 -37.08925,27.68212 -60.38846,30.12888 -3.48675,0.36616 -15.27431,0.51422 -18.15617,0.22805 z m 19.52896,-7.88409 c 14.83811,-2.06947 29.3246,-7.85312 40.56629,-16.19587 7.98633,-5.92686 15.93523,-14.17578 21.37116,-22.17778 13.07765,-19.25102 17.9521,-43.53052 13.37309,-66.61099 -4.38948,-22.1252 -17.27797,-41.937075 -35.83741,-55.08846 -22.5497,-15.978908 -51.70364,-20.26439 -78.382688,-11.521862 -3.64943,1.195894 -4.04099,1.389521 -3.83234,1.895135 0.0811,0.196585 3.03066,1.954651 6.55452,3.906813 l 6.407028,3.549383 4.66267,-0.827114 c 6.66875,-1.18297 10.39079,-1.473229 16.56893,-1.292098 7.83086,0.229585 12.94411,1.113473 20.10833,3.475972 12.2699,4.046164 22.6058,10.245678 31.11727,18.664267 6.87687,6.801829 11.78543,13.962699 15.83115,23.095354 2.3305,5.26077 5.50352,15.06411 5.25413,16.23311 -0.054,0.2532 -15.39685,-8.15291 -47.70463,-26.136655 -26.19375,-14.580451 -47.89289,-26.563309 -48.22031,-26.628576 -0.41589,-0.08291 -0.59532,0.0071 -0.59532,0.298619 0,0.733232 29.35612,92.085022 29.69997,92.421782 0.26087,0.2555 7.38034,-1.20575 33.89067,-6.95595 18.45824,-4.00367 33.61579,-7.22404 33.68344,-7.15639 0.19907,0.19907 -0.86459,5.47714 -1.16414,5.77669 -0.15057,0.15057 -6.56713,1.63789 -14.25903,3.30517 -7.69191,1.66729 -15.2798,3.31396 -16.86199,3.65928 -1.58219,0.34533 -3.00053,0.75168 -3.15187,0.90302 -0.19049,0.19049 1.45459,5.13033 5.34627,16.05375 3.73619,10.48699 5.56719,15.96952 5.4597,16.34792 -0.23949,0.84303 -4.14948,4.01798 -4.39455,3.56841 -0.1059,-0.19429 -2.71984,-7.43746 -5.80875,-16.09595 -7.32827,-20.54181 -6.53637,-18.52083 -7.25719,-18.52083 -0.33359,0 -6.90324,1.36874 -14.59922,3.04165 -7.69597,1.6729 -14.19596,3.04212 -14.44441,3.0427 -0.47675,0.001 -0.50289,-0.0755 -7.76037,-22.75311 -1.69983,-5.31151 -3.20083,-9.86565 -3.33554,-10.12031 -0.13472,-0.25466 -0.50864,-0.45811 -0.83094,-0.45212 -1.03344,0.0192 -64.752308,16.0277 -65.073388,16.34878 -0.19479,0.19479 -0.21614,0.40015 -0.0577,0.5554 0.13825,0.13549 22.51605,12.71191 49.728438,27.94761 27.2124,15.23569 49.63765,27.85076 49.8339,28.03347 0.68923,0.64169 -8.44709,3.33034 -14.77661,4.34848 -20.12843,3.23779 -41.208118,-1.80712 -57.238568,-13.69865 -12.73796,-9.44914 -21.76768,-21.54222 -27.17388,-36.39271 -0.78102,-2.14542 -1.34463,-3.27878 -1.8362,-3.69241 -0.3901,-0.32825 -3.23697,-2.00537 -6.32637,-3.72693 -4.32745,-2.41146 -5.58065,-3.22509 -5.45834,-3.54381 0.0873,-0.22754 2.11116,-3.93364 4.49745,-8.23577 2.38628,-4.30214 4.46204,-8.35785 4.6128,-9.01269 0.15076,-0.65485 0.46101,-3.09563 0.68944,-5.42396 0.90859,-9.26093 3.30937,-17.6099 7.5321,-26.19375 5.49174,-11.163445 13.86532,-20.889827 24.78354,-28.787446 0.75034,-0.542756 1.71829,-1.550427 2.15101,-2.239272 1.66577,-2.651771 8.78786,-15.707303 8.78786,-16.109073 0,-0.695504 -1.296,-0.268792 -5.65838,1.863048 -10.12002,4.945521 -19.52383,11.929026 -26.28041,19.51648 -13.76245,15.454868 -21.49289,32.860003 -23.11231,52.037523 -0.35425,4.19512 -0.19485,14.88238 0.27493,18.43332 2.43415,18.39902 9.17065,33.77974 20.58284,46.99454 11.15129,12.91269 25.42089,22.30763 41.07249,27.04165 5.616038,1.69864 12.547278,3.01904 18.917708,3.60382 3.78717,0.34765 14.49182,0.12696 18.07375,-0.37261 z M 80.922482,141.2755 c 18.24493,-4.54774 33.222678,-8.39896 33.283898,-8.55827 0.11089,-0.28858 -20.651228,-65.382854 -20.949198,-65.680825 -0.0862,-0.08615 -0.33059,-0.04179 -0.54319,0.09858 -0.60226,0.397658 -45.67221,81.640595 -45.51615,82.047275 0.0762,0.19859 0.23159,0.36125 0.3453,0.36146 0.11371,2.2e-4 15.13441,-3.72049 33.37934,-8.26822 z" style="fill:#98d000;fill-opacity:1;stroke-width:0.26458335"/>
		<path id="path4252" d="" style="fill:#000000;stroke-width:0.26458335"/>
		<path id="path4250" d="" style="fill:#000000;stroke-width:0.26458335"/>
	</g>
</svg>
