<?xml version="1.0" encoding="UTF-8" standalone="no"?>
<svg xmlns:dc="http://purl.org/dc/elements/1.1/" xmlns:cc="http://creativecommons.org/ns#" xmlns:rdf="http://www.w3.org/1999/02/22-rdf-syntax-ns#" xmlns:svg="http://www.w3.org/2000/svg" xmlns="http://www.w3.org/2000/svg" id="svg8" version="1.1" viewBox="0 0 114.99072 115.31467" height="115.31467mm" width="114.99072mm">
	<defs id="defs2"/>
	<metadata id="metadata5">
		<rdf:RDF>
			<cc:Work rdf:about="">
				<dc:format>image/svg+xml</dc:format>
				<dc:type rdf:resource="http://purl.org/dc/dcmitype/StillImage"/>
				<dc:title/>
			</cc:Work>
		</rdf:RDF>
	</metadata>
	<g transform="translate(-50.643473,-186.00588)" id="layer1">
		<path id="path4252" d="M 101.55042,300.94771 C 95.147621,300.17154 89.519021,298.56544 84.077974,295.96202 67.890141,288.21649 56.92908,275.03047 52.579461,258.0697 c -1.967341,-7.67139 -2.404305,-14.16804 -1.451799,-21.58489 1.360459,-10.59343 4.86716,-19.04896 11.607335,-27.98818 9.134044,-12.11411 22.138184,-19.61412 38.062033,-21.95192 14.83788,-2.17836 31.01141,2.3319 43.07677,12.01269 12.19585,9.78548 19.32388,22.76364 21.44302,39.04177 0.99611,7.65161 -0.40466,18.40432 -3.47027,26.63879 -4.08717,10.97844 -11.87774,20.71822 -22.00287,27.50801 -3.41776,2.29191 -9.75336,5.37842 -13.69696,6.67275 -7.86252,2.58055 -16.68659,3.48784 -24.5963,2.52899 z m 13.199,-7.12747 c 21.87284,-2.86728 39.11774,-19.49879 43.20581,-41.66899 0.3591,-1.94746 0.46174,-3.91383 0.45574,-8.73125 -0.007,-5.74086 -0.0628,-6.47654 -0.72587,-9.59271 -1.32405,-6.22272 -3.51325,-11.76144 -6.64512,-16.81225 -6.85279,-11.05158 -18.05681,-19.28122 -30.44951,-22.36593 -4.81913,-1.19954 -6.34763,-1.36765 -12.43542,-1.36765 -6.08778,0 -7.61628,0.16811 -12.435409,1.36765 -15.608475,3.88516 -28.613943,15.42808 -34.636613,30.74151 -4.56979,11.61928 -4.445473,25.62917 0.331391,37.34614 6.809372,16.70242 22.140928,28.65778 39.838701,31.06573 3.62944,0.49382 9.8027,0.50193 13.4963,0.0178 z m -10.54705,-30.99315 c -4.01064,-0.85961 -7.418189,-2.83567 -10.405029,-6.03395 -6.83847,-7.32257 -6.80753,-18.97546 0.0698,-26.28609 4.26138,-4.52988 9.494179,-6.67039 15.468699,-6.32759 4.9315,0.28297 8.74441,2.04297 12.44675,5.7453 2.5358,2.53581 3.91635,4.71034 4.95626,7.8067 0.64144,1.90993 0.71087,2.49138 0.71087,5.95313 0,3.46175 -0.0694,4.04319 -0.71087,5.95312 -0.92489,2.75388 -2.30976,5.06366 -4.37795,7.30179 -4.66392,5.04718 -11.59483,7.29441 -18.15853,5.88759 z m 8.33739,-5.36546 c 4.11982,-1.27955 7.37946,-4.35651 9.12933,-8.61767 0.69059,-1.68169 0.76116,-2.14419 0.76701,-5.02708 0.006,-2.82289 -0.0747,-3.39507 -0.72547,-5.15938 -2.37112,-6.42858 -8.99111,-10.35006 -15.70915,-9.30563 -5.18321,0.80582 -9.761849,4.56615 -11.491789,9.43793 -0.79564,2.24065 -0.972,6.07404 -0.38342,8.33437 1.09697,4.21274 3.92658,7.72656 7.678789,9.53557 1.16416,0.56126 2.71198,1.14021 3.43958,1.28655 1.86666,0.37544 5.24946,0.1507 7.29512,-0.48466 z m -6.44775,-7.0006 c -3.52349,-1.30704 -5.29647,-4.19538 -4.85637,-7.9114 0.4149,-3.50319 4.09317,-6.33703 7.67629,-5.91403 2.58247,0.30487 5.33167,2.54585 5.97793,4.87286 0.94583,3.40563 -0.54896,6.93236 -3.56335,8.40716 -1.77858,0.87018 -3.79315,1.08009 -5.2345,0.54541 z" style="fill:#98d000;fill-opacity:1;stroke-width:0.26458332"/>
	</g>
</svg>
