<?xml version="1.0" encoding="UTF-8" standalone="no"?>
<!-- Created with Inkscape (http://www.inkscape.org/) -->
<svg xmlns:dc="http://purl.org/dc/elements/1.1/" xmlns:cc="http://creativecommons.org/ns#" xmlns:rdf="http://www.w3.org/1999/02/22-rdf-syntax-ns#" xmlns:svg="http://www.w3.org/2000/svg" xmlns="http://www.w3.org/2000/svg" xmlns:sodipodi="http://sodipodi.sourceforge.net/DTD/sodipodi-0.dtd" xmlns:inkscape="http://www.inkscape.org/namespaces/inkscape" width="200.21408mm" height="195.241mm" viewBox="0 0 200.21408 195.241" version="1.1" id="svg16" sodipodi:docname="jinxuan-installation-tutorial-network-connection-icon.svg">
	<defs id="defs10"/>
	<sodipodi:namedview id="base" pagecolor="#ffffff" bordercolor="#666666" borderopacity="1.0" inkscape:pageopacity="0.0" inkscape:pageshadow="2" inkscape:document-units="mm" showgrid="false" inkscape:window-x="0" inkscape:window-y="0" inkscape:window-maximized="1"/>
	<metadata id="metadata13">
		<rdf:RDF>
			<cc:Work rdf:about="">
				<dc:format>image/svg+xml</dc:format>
				<dc:type rdf:resource="http://purl.org/dc/dcmitype/StillImage"/>
			</cc:Work>
		</rdf:RDF>
	</metadata>
	<g inkscape:label="圖層 1" inkscape:groupmode="layer" id="layer1" transform="translate(-8.0090895,-78.062636)">
		<path style="fill:#98d000;fill-opacity:1;stroke-width:0.26458332" d="m 149.9018,272.97291 c -2.86474,-8.00595 -33.46713,-95.08927 -33.46713,-95.23532 0,-0.11721 0.1176,-0.21311 0.26133,-0.21311 0.32412,0 91.05777,44.409 91.39915,44.73472 0.13582,0.1296 0.16889,0.31367 0.0735,0.40906 -0.0954,0.0954 -8.65995,1.85544 -19.03236,3.91121 -12.45034,2.46761 -18.85892,3.84597 -18.85892,4.05617 0,0.17512 5.53641,6.52698 12.30313,14.11525 6.76671,7.58828 12.3946,13.95511 12.50641,14.14853 0.22948,0.39697 0.13291,0.49796 -3.56897,3.73227 -1.41456,1.23589 -2.74736,2.2079 -2.96177,2.16003 -0.21441,-0.0479 -2.61768,-2.58735 -5.34059,-5.64329 -19.09679,-21.43239 -20.00453,-22.41628 -20.34566,-22.05242 -0.18388,0.19613 -2.0919,5.65487 -4.24005,12.13055 -5.72429,17.25607 -8.0948,24.07708 -8.36751,24.07708 -0.13322,0 -0.29547,-0.14883 -0.36056,-0.33073 z M 89.844043,253.71205 c -25.76838,-2.1408 -48.95595,-14.81365 -64.19908,-35.08714 -3.66548,-4.87512 -5.68462,-8.17456 -8.55564,-13.98064 -5.86974,-11.87043 -8.6367203,-23.07514 -9.0493303,-36.64479 -0.29194,-9.60106 1.49741,-20.99092 4.8229403,-30.69973 4.41675,-12.89465 11.33558,-23.70628 21.59465,-33.74466 15.17418,-14.847747 33.06537,-23.016747 54.97302,-25.100317 5.45773,-0.51907 9.10892,-0.5223 14.460007,-0.0128 20.00561,1.90479 36.39305,8.7151 50.90864,21.15668 17.25694,14.791237 27.25945,33.672687 30.20851,57.023747 0.4624,3.66134 0.46419,15.63172 0.003,19.31459 -0.5358,4.27756 -1.80216,10.43011 -2.96606,14.41037 -1.26619,4.33008 -1.70619,5.43338 -2.16687,5.43338 -0.678,0 -23.0941,-9.75781 -23.0941,-10.05295 0,-0.1648 2.25067,-1.1199 5.00149,-2.12245 2.75083,-1.00254 5.11439,-1.93569 5.25237,-2.07367 0.35653,-0.35653 0.92089,-3.22214 1.40425,-7.13036 0.47293,-3.82378 0.54117,-12.1888 0.12777,-15.66224 -0.46137,-3.87657 -0.84605,-6.25181 -1.0716,-6.61675 -0.17291,-0.27978 -0.99511,-0.0986 -4.01068,0.8837 -4.04793,1.3186 -10.23307,2.9503 -14.77339,3.89734 -1.52797,0.31871 -2.82568,0.62195 -2.88381,0.67387 -0.0581,0.0519 -0.0817,3.1623 -0.0523,6.91197 0.0686,8.77213 -0.44714,16.21029 -1.12404,16.21029 -0.42433,0 -10.20518,-4.16034 -10.99603,-4.67722 l -0.63645,-0.41597 0.17347,-7.70601 c 0.0954,-4.23831 0.0776,-7.85411 -0.0396,-8.03511 -0.16842,-0.26012 -1.15284,-0.2229 -4.69639,0.17755 -5.87786,0.66424 -10.97836,1.0498 -18.9031,1.42893 l -6.4823,0.31012 -0.0684,15.05149 c -0.047,10.35386 0.0196,15.15745 0.21344,15.39101 0.21835,0.2631 1.28819,0.30549 4.75219,0.1883 l 4.47041,-0.15124 0.27052,0.63522 c 0.14879,0.34937 0.87883,3.00324 1.62231,5.89749 0.98233,3.824 1.26714,5.31458 1.04206,5.45369 -0.17036,0.10529 -2.88907,0.27795 -6.04158,0.3837 -3.25262,0.10911 -5.87488,0.31053 -6.06256,0.46568 -0.44895,0.37114 -0.48551,26.27548 -0.0375,26.55238 0.50834,0.31417 5.56836,-2.42527 7.81364,-4.23023 2.39831,-1.92799 5.08928,-4.7306 6.78254,-7.06394 0.61482,-0.84723 1.26209,-1.54389 1.43838,-1.54813 0.17629,-0.004 0.43911,0.43877 0.58405,0.98447 3.05422,11.4999 7.42936,28.32247 7.42955,28.56694 5.3e-4,0.57127 -8.10284,2.93039 -13.81243,4.02123 -6.88465,1.31534 -16.978197,1.8845 -23.625867,1.33222 z m -21.29896,-22.17893 c 0,-0.12702 -0.66187,-1.03842 -1.47083,-2.02534 -3.38774,-4.13298 -6.80703,-9.61534 -9.37925,-15.03832 -1.43738,-3.03043 -3.78758,-9.00661 -4.5125,-11.47458 -0.18097,-0.61612 -0.53776,-1.30911 -0.79287,-1.53998 -0.25511,-0.23086 -4.13613,-1.35123 -8.6245,-2.48969 -4.48837,-1.13846 -8.97852,-2.38023 -9.9781,-2.7595 -1.81882,-0.69009 -2.81313,-0.86373 -2.81236,-0.49113 7.9e-4,0.43835 3.60058,6.72834 5.41318,9.45885 5.52722,8.3263 13.42275,16.03252 21.83848,21.31491 2.1867,1.37254 9.65847,5.27572 10.0992,5.27572 0.12076,0 0.21955,-0.10392 0.21955,-0.23094 z m 21.8968,-13.00448 c 0.0419,-7.96018 -0.0291,-13.15691 -0.18179,-13.30957 -0.35638,-0.35638 -23.05812,-1.85107 -23.37046,-1.53872 -0.15517,0.15517 0.16697,1.22877 0.85672,2.85525 3.66898,8.65166 9.00889,16.28841 14.46031,20.68004 2.27749,1.83474 7.26964,4.67096 7.86964,4.47104 0.21289,-0.0709 0.31634,-3.79428 0.36558,-13.15804 z m -0.26492,-26.14237 c 0.2625,-0.16664 0.31846,-3.42592 0.26458,-15.40793 l -0.0683,-15.19657 -3.175,-0.18995 c -1.74625,-0.10447 -5.19906,-0.31235 -7.67291,-0.46196 -2.47386,-0.14961 -7.74913,-0.59601 -11.72283,-0.992 -6.30535,-0.62835 -7.25857,-0.67058 -7.48935,-0.33179 -0.47538,0.69784 -0.0883,14.92375 0.52175,19.17362 1.23651,8.61453 1.64518,10.85073 2.03712,11.14687 0.8313,0.6281 14.28622,1.90116 24.32622,2.30164 1.01865,0.0406 2.03068,0.0954 2.24896,0.12165 0.21828,0.0263 0.54669,-0.0473 0.72979,-0.16358 z m -41.56319,-11.34033 c -0.6782,-5.58253 -0.77266,-7.28758 -0.82985,-14.97942 -0.0389,-5.22761 -0.16772,-8.78301 -0.32396,-8.93925 -0.14268,-0.14269 -2.27323,-0.78314 -4.73455,-1.42323 -4.98832,-1.29726 -10.22895,-3.03722 -13.55904,-4.50178 -1.21262,-0.5333 -2.36185,-0.90936 -2.55386,-0.83568 -0.38514,0.1478 -0.72337,1.53058 -1.39932,5.72094 -0.58255,3.61129 -0.64039,15.60504 -0.0925,19.188 0.3361,2.19813 0.44034,2.45428 1.35552,3.33094 1.21562,1.16444 4.48062,3.07108 7.59313,4.4341 4.46483,1.95522 14.47374,4.96372 15.03705,4.51987 0.18459,-0.14544 0.0254,-2.25097 -0.49258,-6.51449 z m 61.709967,-31.9601 c 7.58796,-0.24042 20.76244,-1.47756 21.30229,-2.00038 0.30102,-0.29151 -0.14308,-2.87636 -1.32295,-7.70018 -3.32052,-13.57571 -9.06745,-24.77887 -16.54848,-32.2599 -3.38341,-3.38342 -9.15222,-6.98424 -10.41374,-6.50015 -0.35281,0.13538 -0.39994,2.9859 -0.39994,24.18594 0,17.86764 0.0787,24.11114 0.30667,24.33914 0.17522,0.17522 0.77062,0.2584 1.38906,0.19405 0.59532,-0.0619 3.15451,-0.17828 5.68709,-0.25852 z M 90.440763,124.88702 c 0.0381,-13.65652 -0.0337,-24.29602 -0.16498,-24.42727 -0.13365,-0.13365 -1.28749,0.29396 -2.71339,1.00557 -3.96993,1.98124 -7.1246,4.50745 -10.23186,8.19353 -5.18233,6.14768 -9.75212,14.88132 -12.5981,24.07708 -1.54538,4.99335 -3.24889,12.75575 -2.88025,13.1244 0.666,0.66599 18.94772,2.32099 24.94915,2.25858 l 3.57188,-0.0371 z m 56.890387,19.70594 c 5.51727,-1.15067 14.95335,-3.92453 16.031,-4.71253 0.4432,-0.32407 0.40563,-0.49464 -0.62722,-2.84773 -5.02921,-11.45789 -13.19599,-21.22603 -24.48464,-29.28566 -5.18125,-3.6992 -12.73794,-7.915517 -13.25675,-7.39672 -0.0914,0.0914 -7.9e-4,0.38925 0.20153,0.66189 0.20225,0.27263 1.46854,1.94924 2.81399,3.7258 4.96706,6.55864 8.62863,13.63707 11.67037,22.56078 1.3535,3.97086 3.13229,10.64522 3.86624,14.50694 0.55079,2.89798 0.80965,3.51394 1.39999,3.33125 0.25349,-0.0784 1.32696,-0.32325 2.38549,-0.54402 z M 50.002423,141.475 c 2.94012,-15.04889 8.88856,-28.74373 16.73025,-38.51732 1.05427,-1.314 1.70153,-2.33163 1.52125,-2.39172 -0.58513,-0.19504 -8.28907,3.8728 -11.87967,6.27272 -8.38093,5.60173 -16.01429,13.47961 -21.22415,21.90402 -1.52556,2.46685 -4.70501,8.60764 -4.70501,9.08725 0,0.78071 8.23433,4.06868 14.21268,5.67513 5.05359,1.35795 4.65299,1.51011 5.34465,-2.03008 z" id="path4532" inkscape:connector-curvature="0"/>
	</g>
</svg>
