<?xml version="1.0" encoding="UTF-8" standalone="no"?>
<!-- Created with Inkscape (http://www.inkscape.org/) -->
<svg xmlns:dc="http://purl.org/dc/elements/1.1/" xmlns:cc="http://creativecommons.org/ns#" xmlns:rdf="http://www.w3.org/1999/02/22-rdf-syntax-ns#" xmlns:svg="http://www.w3.org/2000/svg" xmlns="http://www.w3.org/2000/svg" xmlns:sodipodi="http://sodipodi.sourceforge.net/DTD/sodipodi-0.dtd" xmlns:inkscape="http://www.inkscape.org/namespaces/inkscape" width="755.90552" height="915.00275" id="svg3007" version="1.1" sodipodi:docname="Linux-Pinguino.single-color.svg" viewBox="0 0 708.66144 857.81506">
	<defs id="defs3009"/>
	<sodipodi:namedview id="base" pagecolor="#ffffff" bordercolor="#666666" borderopacity="1.0" inkscape:pageopacity="0.0" inkscape:pageshadow="2" inkscape:document-units="px" showgrid="false" inkscape:window-x="65" inkscape:window-y="24" inkscape:window-maximized="0" units="cm" fit-margin-top="0" fit-margin-left="0" fit-margin-right="0" fit-margin-bottom="0"/>
	<metadata id="metadata3012">
		<rdf:RDF>
			<cc:Work rdf:about="">
				<dc:format>image/svg+xml</dc:format>
				<dc:type rdf:resource="http://purl.org/dc/dcmitype/StillImage"/>
				<dc:title/>
			</cc:Work>
		</rdf:RDF>
	</metadata>
	<g inkscape:label="Layer 1" inkscape:groupmode="layer" id="layer1" transform="translate(-35.433071,63.88618)" style="display:inline">
		<g transform="matrix(0.91159133,0,0,0.91159133,-140.97298,1091.3033)" style="font-style:normal;font-weight:normal;font-size:429.75283813px;line-height:125%;font-family:Sans;letter-spacing:0px;word-spacing:0px;fill:#000000;fill-opacity:1;stroke:none" id="text2999"/>
		<g inkscape:groupmode="layer" id="layer2" inkscape:label="Layer 2">
			<g id="g4241">
				<path id="path154" d="m 413.6538,-43.885882 c -5.21516,-0.0096 -10.65489,0.209315 -16.32753,0.66159 C 253.95642,-31.677866 291.9791,119.78498 289.85121,170.50502 c -2.61821,37.0912 -10.13858,66.32159 -35.64845,102.58276 -29.97027,35.63998 -72.16502,93.32376 -92.15377,153.37057 -9.43377,28.33951 -13.92295,57.22507 -9.7771,84.56334 -1.2987,1.16299 -2.53507,2.3815 -3.71069,3.63655 -8.79926,9.39401 -15.30093,20.77622 -22.54542,28.43963 -6.76829,6.75151 -16.41138,9.31957 -27.008338,13.12148 -10.601011,3.80362 -22.240114,9.41125 -29.305119,22.96844 0,0 0,0.005 -0.0048,0.007 -0.01153,0.0225 -0.02411,0.0437 -0.03612,0.0666 v 0 c -6.3956,11.94556 -4.494289,25.70181 -2.541029,38.44671 1.953317,12.74475 3.930749,24.7881 1.305968,32.95903 -8.38998,22.93199 -9.461144,38.7945 -3.55487,50.30059 5.918866,11.53004 18.088545,16.61924 31.842924,19.49201 27.508834,5.7455 64.763004,4.31771 94.123604,19.87912 l 2.52358,-4.76164 -2.49746,4.77583 c 31.43196,16.43348 63.29777,22.27051 88.72108,16.46363 18.43231,-4.21004 33.39499,-15.18545 41.0793,-32.07399 19.88509,-0.0978 41.70549,-8.51961 76.65906,-10.4442 23.71253,-1.91003 53.33366,8.42059 87.40527,6.5287 0.89062,3.69654 2.1796,7.25202 3.944,10.63061 0.018,0.0348 0.035,0.0692 0.0535,0.10345 13.20794,26.4114 37.74924,38.49201 63.90275,36.42795 26.188,-2.06669 54.03113,-17.50835 76.53804,-44.293 l -4.12607,-3.46751 4.15761,3.42935 c 21.45245,-26.01178 57.06,-36.79786 80.67066,-51.03831 11.80538,-7.12042 21.38456,-16.03623 22.12469,-28.98585 0.73973,-12.94311 -6.85904,-27.44794 -24.33217,-46.84376 0,0 -0.005,-0.005 -0.005,-0.005 -0.007,-0.009 -0.0137,-0.0161 -0.0204,-0.0241 -5.74108,-6.48783 -8.47992,-18.51237 -11.4232,-31.31741 -2.94127,-12.79725 -6.22443,-26.60189 -16.73081,-35.5481 v 0 c -0.021,-0.0185 -0.0422,-0.0352 -0.0633,-0.0535 0,0 0,0 0,0 -4.18139,-3.64359 -8.52658,-6.1165 -12.90241,-7.77789 14.60718,-43.32125 8.87598,-86.45868 -5.86907,-125.43994 C 642.55136,348.78328 610.95787,307.09735 586.8294,278.5805 559.82151,244.51423 533.40542,212.17103 533.92579,164.4012 534.73026,91.494028 541.94532,-43.710132 413.65068,-43.885228 Z m 17.36858,112.320623 c 7.28001,0 13.49762,2.133852 19.88447,6.769553 6.48829,4.709202 11.16263,10.604422 14.93004,18.836884 3.69759,8.023152 5.47664,15.871782 5.65107,25.185692 0,0.24419 0,0.45344 0.0697,0.69763 0.0697,9.55796 -1.56972,17.68576 -5.19761,25.98798 -2.07006,4.7373 -4.44735,8.71337 -7.29275,12.15569 -0.96599,-0.46377 -1.96925,-0.90968 -3.00978,-1.33756 v 0 c -7.21244,-3.0891 -12.74525,-5.05497 -17.35654,-6.65506 1.67157,-2.00927 3.06344,-4.39226 4.28736,-7.37124 1.84882,-4.49989 2.75578,-8.89527 2.93019,-14.12769 0,-0.20935 0.0698,-0.38379 0.0698,-0.62796 0.1046,-5.02309 -0.55814,-9.31379 -2.02322,-13.7091 -1.53486,-4.60454 -3.48834,-7.9184 -6.31386,-10.67418 -2.82554,-2.75589 -5.65107,-4.011584 -9.03478,-4.116338 -0.15864,-0.0096 -0.3168,-0.0096 -0.47306,-0.0096 -3.18281,0.0096 -5.94651,1.101008 -8.80584,3.494868 -2.99994,2.51169 -5.23246,5.72079 -7.08132,10.18588 -1.84879,4.465 -2.75577,8.89514 -2.93013,14.16257 -0.0351,0.20935 -0.0351,0.38379 -0.0351,0.59304 -0.0603,2.89536 0.12362,5.54776 0.57011,8.12338 -6.5125,-3.24509 -12.64971,-5.45748 -18.40956,-6.82838 -0.32833,-2.4907 -0.51826,-5.06094 -0.57889,-7.74834 v -0.73263 c -0.10468,-9.52314 1.46509,-17.68575 5.12785,-25.987887 3.66275,-8.302245 8.19756,-14.267323 14.58117,-19.11607 6.38361,-4.848738 12.66256,-7.081238 20.09271,-7.15101 0.11611,0 0.2322,0 0.34774,0 z m -99.64166,7.889045 c 4.8294,0.01145 9.15083,1.624854 13.62079,5.194362 4.84876,3.871933 8.5115,8.82533 11.58123,15.802012 3.06971,6.97667 4.70922,13.95325 5.16268,22.18572 v 0.0693 c 0.21981,3.45756 0.19293,6.71217 -0.0796,9.8642 -0.95516,0.27148 -1.89117,0.56523 -2.80808,0.8809 -5.20733,1.79246 -9.7965,4.23523 -13.79631,6.87637 0.39112,-2.76279 0.44934,-5.56595 0.14934,-8.69145 -0.0352,-0.17444 -0.0352,-0.31394 -0.0352,-0.48829 -0.41861,-4.15112 -1.29067,-7.63942 -2.75577,-11.16265 -1.56971,-3.6626 -3.3139,-6.24404 -5.61621,-8.23244 -2.08641,-1.80185 -4.05777,-2.6293 -6.22663,-2.61291 -0.22438,0 -0.4513,0.0124 -0.6802,0.0314 -2.44184,0.20913 -4.46506,1.39515 -6.38366,3.7324 -1.91856,2.33715 -3.17433,5.23248 -4.0813,9.06954 -0.90697,3.83718 -1.15116,7.60458 -0.76745,11.93004 0,0.17434 0.0351,0.31403 0.0351,0.48836 0.41854,4.18604 1.25576,7.67427 2.75575,11.19759 1.53486,3.62783 3.31391,6.20915 5.61622,8.19746 0.38557,0.333 0.76701,0.63212 1.14674,0.89935 -2.39474,1.84307 -3.53823,2.69278 -5.50061,4.13473 -1.25862,0.92353 -2.75763,2.02314 -4.49991,3.30739 -3.79955,-3.55937 -6.76364,-8.03274 -9.35527,-13.92276 -3.06972,-6.97655 -4.70924,-13.95326 -5.19761,-22.18573 v -0.0693 c -0.45346,-8.23236 0.34884,-15.31369 2.61625,-22.63913 2.26741,-7.325523 5.30227,-12.627687 9.69751,-16.988217 4.39529,-4.36034 8.82549,-6.557954 14.16262,-6.836939 0.41695,-0.02291 0.83019,-0.03332 1.23941,-0.03143 z m 45.31655,57.113524 c 11.22472,-0.0433 24.73218,3.63666 41.08476,14.15065 10.0445,6.53193 17.86033,7.07784 35.85774,14.78606 l 0.0216,0.01 0.022,0.009 c 8.6593,3.55287 13.74186,8.18385 16.22506,13.06041 2.48315,4.87664 2.54388,10.16488 0.46544,15.72795 -4.15672,11.12643 -17.425,22.83576 -36.04414,28.65006 l -0.0176,0.008 -0.0165,0.008 c -9.0786,2.94963 -16.99508,9.4634 -26.32808,14.80026 -9.33273,5.33659 -19.89342,9.6409 -34.25308,8.8102 0,-7e-5 0,0 0,0 -12.22465,-0.7125 -19.53208,-4.86257 -26.1395,-10.17284 -6.60761,-5.31033 -12.36554,-11.98164 -20.79693,-16.93251 l -0.0216,-0.013 -0.022,-0.013 c -13.58103,-7.67626 -20.99562,-16.55463 -23.32265,-24.25146 -2.32709,-7.69686 -0.14319,-14.26676 6.59509,-19.31662 7.57574,-5.67747 12.83828,-9.53942 16.3438,-12.11201 3.48245,-2.55543 4.93131,-3.51362 6.04029,-4.57847 0.006,-0.009 0.0117,-0.0122 0.0175,-0.0173 0,0 0.005,-0.009 0.005,-0.009 5.69223,-5.38806 14.76608,-15.20451 28.44393,-19.91278 4.70763,-1.62055 9.96064,-2.66609 15.84025,-2.68932 z m 78.49149,46.42197 c -4.84383,0.28881 -9.9169,2.78272 -15.82383,6.08057 -5.90699,3.29777 -12.54959,7.5163 -19.74829,11.67057 -14.39737,8.30854 -30.97057,16.25449 -47.4411,16.25449 -16.49612,0 -29.67558,-7.61859 -39.56081,-15.45215 -4.94263,-3.91679 -9.02198,-7.86202 -12.28106,-10.91405 -1.62954,-1.5261 -3.04279,-2.82674 -4.3615,-3.84264 -1.31846,-1.01589 -2.39167,-2.02321 -4.59804,-2.02321 l -0.10573,4.63619 c -0.15798,1.55131 -0.32031,1.50348 -0.25617,1.54576 0.10291,0.0676 0.61485,0.24409 1.2122,0.70422 0.96947,0.74684 2.31518,1.9643 3.91234,3.45997 3.19434,2.9914 7.43893,7.10425 12.66482,11.24548 10.45166,8.28238 24.98691,16.77988 43.37395,16.77988 18.41261,0 35.83311,-8.60615 50.51087,-17.07642 7.33882,-4.23516 14.00414,-8.46274 19.67195,-11.62698 5.66752,-3.16433 10.43602,-5.14855 13.19671,-5.31318 z m 16.36678,22.03414 c 12.22931,48.20748 40.67315,117.83748 58.95478,151.81819 9.71733,18.02848 29.04987,56.33272 37.40244,102.48244 5.29253,-0.16214 11.12018,0.60683 17.36092,2.20307 21.83839,-56.61523 -18.51868,-117.59738 -36.97294,-134.5804 -7.45053,-7.22958 -7.80865,-10.46874 -4.11511,-10.31561 20.02212,17.70619 46.30676,53.31902 55.86978,93.51639 4.36058,18.3293 5.29026,37.5985 0.61156,56.61538 2.28908,0.95096 4.6139,1.98487 6.97007,3.10025 35.05467,17.06985 48.01909,31.91342 41.78569,52.17216 -2.05306,-0.072 -4.07258,-0.0639 -6.04239,-0.0165 -0.18384,0.005 -0.3663,0.01 -0.54946,0.014 5.07631,-16.05845 -6.16941,-27.90241 -36.13566,-41.4608 -31.08095,-13.6742 -55.84799,-12.31378 -60.03395,15.41838 -0.26791,1.4529 -0.4834,2.9334 -0.64754,4.43452 -2.32208,0.80636 -4.6568,1.8359 -6.99736,3.1166 -14.59457,7.98572 -22.56044,22.47561 -26.99089,40.24755 -4.42689,17.75756 -5.696,39.2254 -6.91777,63.35769 0,0.005 0,0.009 0,0.0125 -0.74649,12.13453 -5.73541,28.54688 -10.79526,45.93032 -50.91537,36.31882 -121.58105,52.05411 -181.57889,11.1081 -4.06607,-6.43216 -8.73037,-12.80519 -13.53147,-19.09081 -3.06591,-4.01401 -6.21536,-8.00347 -9.34651,-11.93673 6.15909,0.005 11.39435,-1.00386 15.6255,-2.92242 5.26169,-2.38587 8.95865,-6.21802 10.78763,-11.13759 3.65793,-9.83929 -0.016,-23.7194 -11.72621,-39.56967 -11.70948,-15.84918 -31.54117,-33.73646 -60.68259,-51.60847 0,0 -0.005,0 -0.005,-0.005 -21.40893,-13.31934 -33.38207,-29.64484 -38.98627,-47.37024 -5.60474,-17.72695 -4.81889,-36.89555 -0.49928,-55.82076 8.29109,-36.32625 29.59401,-71.65643 43.18646,-93.82814 3.65949,-2.69263 1.30747,4.99808 -13.76032,32.97879 -13.50408,25.58224 -38.75001,84.62032 -4.1838,130.70514 0.92373,-32.79629 8.75598,-66.24444 21.90444,-97.53121 19.15175,-43.41285 59.21029,-118.69606 62.39188,-178.69784 1.64039,1.19115 7.27736,4.99456 9.78909,6.42295 0.005,0.008 0.0111,0.008 0.0161,0.009 7.34881,4.32758 12.86808,10.65354 20.01643,16.39843 7.16251,5.75628 16.11041,10.72814 29.62889,11.51583 v 0 c 15.77886,0.91305 27.80467,-3.97416 37.65748,-9.6082 9.83799,-5.62549 17.69729,-11.85124 25.14318,-14.28142 0.0117,-0.008 0.0226,-0.008 0.0336,-0.0107 15.73384,-4.92021 28.24389,-13.62876 35.36281,-23.78598 z m 99.93381,275.98704 c 6.37287,-0.0295 14.09279,2.09518 22.54327,5.87563 22.74381,10.49987 29.85997,19.49973 23.65079,32.72048 -5.23245,9.97659 -27.62749,25.84843 -42.97609,21.66247 -15.66252,-4.04645 -23.30196,-26.61591 -20.75552,-43.67374 1.36405,-11.58345 7.91576,-16.53986 17.53755,-16.58484 z m -25.73289,31.17142 c 1.28565,20.85941 11.60602,42.13372 29.85781,46.73803 19.97321,5.26251 48.77045,-11.87469 60.92896,-25.8528 2.42438,-0.0971 4.79463,-0.21584 7.09654,-0.27141 10.66533,-0.25752 19.61062,0.3513 28.75032,8.34466 l 0.0316,0.0271 0.0326,0.0271 c 7.02363,5.95057 10.3622,17.19592 13.2578,29.79353 2.89545,12.59766 5.2109,26.3179 13.89441,36.0921 l 0.0129,0.014 0.0121,0.014 c 16.69426,18.52555 22.06033,31.0474 21.60357,39.03969 -0.45681,7.9925 -6.2436,13.92585 -16.9292,20.37065 -21.36193,12.88434 -59.21225,24.08827 -83.38827,53.37242 -20.99241,24.98213 -46.59034,38.70272 -69.13412,40.48196 -22.54377,1.7791 -41.99373,-7.57744 -53.4607,-30.59262 l -0.0261,-0.0522 -0.0271,-0.0513 c -7.11374,-13.53232 -4.15036,-34.88817 1.84224,-57.41439 5.99273,-22.52638 14.60269,-45.65605 15.75524,-64.45553 v -0.0295 -0.0286 c 1.21925,-24.08721 2.56746,-45.1225 6.61366,-61.35291 4.04615,-16.23042 10.41733,-27.22266 21.70607,-33.39957 0.52569,-0.28761 1.04754,-0.55897 1.56645,-0.8154 z M 179.16687,510.626 c 1.6849,0.007 3.46796,0.14749 5.36766,0.43495 12.77836,1.93566 23.92156,10.87019 34.65749,25.43198 10.73602,14.56201 20.72566,34.44015 30.99484,56.49013 l 0.0131,0.0271 0.0121,0.0261 c 8.25231,17.22375 25.66603,36.1625 40.42309,55.48274 14.757,19.32024 26.17797,38.71341 24.69071,53.55657 l -0.007,0.0645 -0.005,0.0643 c -1.92392,25.31574 -16.20438,39.09735 -38.12629,44.10444 -21.91538,5.00542 -51.62501,0.0161 -81.29959,-15.49263 -0.009,-0.005 -0.0176,-0.009 -0.0261,-0.014 -32.83022,-17.38843 -71.88647,-15.66131 -96.939878,-20.89386 -12.530108,-2.61711 -20.706053,-6.55156 -24.458561,-13.86186 -3.752764,-7.31003 -3.836518,-20.06382 4.137967,-41.80949 l 0.03508,-0.096 0.03156,-0.097 c 3.943692,-12.16487 1.025174,-25.47508 -0.889521,-37.96816 -1.914695,-12.49316 -2.851052,-23.85678 1.414952,-31.77736 l 0.01963,-0.0362 0.01944,-0.0371 c 5.461901,-10.52828 13.47335,-14.2919 23.416451,-17.8591 9.94304,-3.5674 21.73338,-6.36903 31.04384,-15.69962 l 0.0481,-0.0492 0.0481,-0.0501 c 8.60716,-9.08005 15.07246,-20.4617 22.63917,-28.53991 6.38442,-6.81595 12.7735,-11.33336 22.40376,-11.40027 0.11143,0 0.22342,0 0.33575,0 z" style="color:#000000;font-style:normal;font-variant:normal;font-weight:normal;font-stretch:normal;font-size:medium;line-height:normal;font-family:'Bitstream Vera Sans';-inkscape-font-specification:'Bitstream Vera Sans';text-indent:0;text-align:start;text-decoration:none;text-decoration-line:none;letter-spacing:normal;word-spacing:normal;text-transform:none;writing-mode:lr-tb;direction:ltr;baseline-shift:baseline;text-anchor:start;display:inline;overflow:visible;visibility:visible;fill:#98d000;fill-opacity:1;stroke:none;stroke-width:309;marker:none;enable-background:accumulate" inkscape:connector-curvature="0"/>
			</g>
		</g>
	</g>
</svg>
